{
    "asset" : {
        "generator" : "Khronos glTF Blender I/O v1.5.17",
        "version" : "2.0"
    },
    "scene" : 0,
    "scenes" : [
        {
            "name" : "Scene",
            "nodes" : [
                1
            ]
        }
    ],
    "nodes" : [
        {
            "mesh" : 0,
            "name" : "Object_18"
        },
        {
            "children" : [
                0
            ],
            "name" : "Room",
            "translation" : [
                -0.7288978695869446,
                1.1128147840499878,
                -0.033518463373184204
            ]
        }
    ],
    "materials" : [
        {
            "doubleSided" : true,
            "name" : "mata",
            "pbrMetallicRoughness" : {
                "baseColorTexture" : {
                    "index" : 0
                },
                "metallicFactor" : 0,
                "roughnessFactor" : 0.6000000238418579
            }
        }
    ],
    "meshes" : [
        {
            "name" : "Mesh_15.004",
            "primitives" : [
                {
                    "attributes" : {
                        "POSITION" : 0,
                        "NORMAL" : 1,
                        "TEXCOORD_0" : 2
                    },
                    "indices" : 3,
                    "material" : 0
                }
            ]
        }
    ],
    "textures" : [
        {
            "sampler" : 0,
            "source" : 0
        }
    ],
    "images" : [
        {
            "bufferView" : 4,
            "mimeType" : "image/png",
            "name" : "mata_baseColor"
        }
    ],
    "accessors" : [
        {
            "bufferView" : 0,
            "componentType" : 5126,
            "count" : 1392,
            "max" : [
                7.2704176902771,
                0.3524332046508789,
                7.564191818237305
            ],
            "min" : [
                -7.287465572357178,
                -0.34765177965164185,
                -6.9806742668151855
            ],
            "type" : "VEC3"
        },
        {
            "bufferView" : 1,
            "componentType" : 5126,
            "count" : 1392,
            "type" : "VEC3"
        },
        {
            "bufferView" : 2,
            "componentType" : 5126,
            "count" : 1392,
            "type" : "VEC2"
        },
        {
            "bufferView" : 3,
            "componentType" : 5123,
            "count" : 6336,
            "type" : "SCALAR"
        }
    ],
    "bufferViews" : [
        {
            "buffer" : 0,
            "byteLength" : 16704,
            "byteOffset" : 0
        },
        {
            "buffer" : 0,
            "byteLength" : 16704,
            "byteOffset" : 16704
        },
        {
            "buffer" : 0,
            "byteLength" : 11136,
            "byteOffset" : 33408
        },
        {
            "buffer" : 0,
            "byteLength" : 12672,
            "byteOffset" : 44544
        },
        {
            "buffer" : 0,
            "byteLength" : 463994,
            "byteOffset" : 57216
        }
    ],
    "samplers" : [
        {
            "magFilter" : 9729,
            "minFilter" : 9987
        }
    ],
    "buffers" : [
        {
            "byteLength" : 521212,
            "uri" : "data:application/octet-stream;base64,"
        }
    ]
}
