{
    "asset" : {
        "generator" : "Khronos glTF Blender I/O v1.5.17",
        "version" : "2.0"
    },
    "scene" : 0,
    "scenes" : [
        {
            "name" : "Scene",
            "nodes" : [
                1
            ]
        }
    ],
    "nodes" : [
        {
            "mesh" : 0,
            "name" : "Object_10"
        },
        {
            "children" : [
                0
            ],
            "name" : "Room",
            "translation" : [
                -0.7288978695869446,
                1.1128147840499878,
                -0.033518463373184204
            ]
        }
    ],
    "materials" : [
        {
            "doubleSided" : true,
            "name" : "krzeslo_srodek",
            "pbrMetallicRoughness" : {
                "baseColorTexture" : {
                    "index" : 0
                },
                "metallicFactor" : 0,
                "roughnessFactor" : 0.6000000238418579
            }
        }
    ],
    "meshes" : [
        {
            "name" : "Mesh_7.004",
            "primitives" : [
                {
                    "attributes" : {
                        "POSITION" : 0,
                        "NORMAL" : 1,
                        "TEXCOORD_0" : 2
                    },
                    "indices" : 3,
                    "material" : 0
                }
            ]
        }
    ],
    "textures" : [
        {
            "sampler" : 0,
            "source" : 0
        }
    ],
    "images" : [
        {
            "bufferView" : 4,
            "mimeType" : "image/png",
            "name" : "krzeslo_srodek_baseColor"
        }
    ],
    "accessors" : [
        {
            "bufferView" : 0,
            "componentType" : 5126,
            "count" : 5974,
            "max" : [
                2.498479127883911,
                1.7478528022766113,
                1.8470731973648071
            ],
            "min" : [
                -2.5064756870269775,
                -0.9295281171798706,
                -3.050027847290039
            ],
            "type" : "VEC3"
        },
        {
            "bufferView" : 1,
            "componentType" : 5126,
            "count" : 5974,
            "type" : "VEC3"
        },
        {
            "bufferView" : 2,
            "componentType" : 5126,
            "count" : 5974,
            "type" : "VEC2"
        },
        {
            "bufferView" : 3,
            "componentType" : 5123,
            "count" : 30720,
            "type" : "SCALAR"
        }
    ],
    "bufferViews" : [
        {
            "buffer" : 0,
            "byteLength" : 71688,
            "byteOffset" : 0
        },
        {
            "buffer" : 0,
            "byteLength" : 71688,
            "byteOffset" : 71688
        },
        {
            "buffer" : 0,
            "byteLength" : 47792,
            "byteOffset" : 143376
        },
        {
            "buffer" : 0,
            "byteLength" : 61440,
            "byteOffset" : 191168
        },
        {
            "buffer" : 0,
            "byteLength" : 529380,
            "byteOffset" : 252608
        }
    ],
    "samplers" : [
        {
            "magFilter" : 9729,
            "minFilter" : 9987
        }
    ],
    "buffers" : [
        {
            "byteLength" : 781988,
            "uri" : "data:application/octet-stream;base64,"
        }
    ]
}
